<svg xmlns="http://www.w3.org/2000/svg" xmlns:xlink="http://www.w3.org/1999/xlink" viewBox="0 0 740.3 586"><defs><style>.a{fill:url(#a);}.b{fill:#262626;}</style><linearGradient id="a" x1="-352.12" y1="-1214.52" x2="-351.85" y2="-1214.52" gradientTransform="matrix(212.46, 822.5, 822.5, -212.46, 1074055.27, 31879.31)" gradientUnits="userSpaceOnUse"><stop offset="0" stop-color="#00ff8f"/><stop offset="0.43" stop-color="#53fdb2"/><stop offset="1" stop-color="#68fcbb"/></linearGradient></defs><path class="a" d="M575.9,331C591.8,392.6,281,544.8,140.2,581.2S412.3,439,396.3,377.4,51.1,366.3,191.9,330,560,269.4,575.9,331Z"/><path class="b" d="M58.1,151.4c0,8.1.3,22.2,18.4,22.2a81,81,0,0,0,10.3-.6v34.1a169.2,169.2,0,0,1-18.1,1.1c-31.4,0-50.6-5.7-50.6-37V88.7H0V53.3H18.1V13.5h40V53.3H87.9V88.7H58.1Z"/><path class="b" d="M111.9,130.6c0-61.1,53-77.3,80.9-77.3,38.1,0,76.2,25.9,77.6,73.8,0,11.3-.8,18.6-.8,18.6H152.2c4.9,24.4,32.5,27.1,40.6,27.1,22.4,0,33.5-12.2,38.1-17.3l31.4,18.1c-6,8.1-26,34.6-69.5,34.6C163.9,208.2,111.9,191.7,111.9,130.6Zm41.4-13.5h74.4c-1.7-13.5-14.9-28.4-35.2-28.4C169.3,88.7,154.9,101.9,153.3,117.1Z"/><path class="b" d="M303.4,0h40.5V204.4H303.4Z"/><path class="b" d="M382.9,0h40.5V204.4H382.9Z"/><path class="b" d="M455.1,130.3c0-42.4,36.2-77.3,80.5-77.3s81.2,34.9,81.2,77.3-36.8,77.6-81.2,77.6S455.1,173.3,455.1,130.3Zm39.7,0c0,24.6,17.6,42.5,40.8,42.5s40.9-18.4,40.9-42.5-17.9-41.9-40.9-41.9S494.8,106.8,494.8,130.3Z"/><path class="b" d="M689.5,138.7v65.7H649.2V55.7h40.3V75.4c15.1-20,40.3-22.7,50.8-22.4V92.5C730.6,91.7,689.5,93.6,689.5,138.7Z"/></svg>