<svg xmlns="http://www.w3.org/2000/svg" xmlns:xlink="http://www.w3.org/1999/xlink" viewBox="0 0 1348.2 254.8"><defs><style>.a{fill:url(#a);}.b{fill:#262626;}</style><linearGradient id="a" x1="-353.03" y1="-720.76" x2="-352.82" y2="-720.76" gradientTransform="matrix(212.46, 822.5, 822.5, -212.46, 667979.84, 137268.06)" gradientUnits="userSpaceOnUse"><stop offset="0" stop-color="#00ff8f"/><stop offset="0.43" stop-color="#53fdb2"/><stop offset="1" stop-color="#68fcbb"/></linearGradient></defs><path class="a" d="M360.4,57.2c12.3,47.7-228.5,165.7-337.7,193.9S233.6,140.9,221.3,93.2-46.3,84.6,62.8,56.4,348.1,9.5,360.4,57.2Z"/><path class="b" d="M537.5,179.9c0,9.7.3,26.4,21.9,26.4a89.7,89.7,0,0,0,12.2-.7v40.5a205.3,205.3,0,0,1-21.5,1.3c-37.3,0-60.1-6.7-60.1-44v-98H468.4V63.3H490V16.1h47.5V63.3h35.4v42.1H537.5Z"/><path class="b" d="M601.5,155.2c0-72.6,62.9-91.9,96-91.9,45.3,0,90.6,30.8,92.2,87.7,0,13.5-.9,22.2-.9,22.2H649.3c5.8,28.9,38.6,32.1,48.2,32.1,26.7,0,39.9-14.4,45.3-20.6l37.3,21.6c-7.1,9.6-30.8,41.1-82.6,41.1C663.1,247.4,601.5,227.8,601.5,155.2Zm49.1-16.1H739c-2-16-17.7-33.7-41.8-33.7C669.6,105.4,652.5,121.1,650.6,139.1Z"/><path class="b" d="M828.9,0h48.2V242.9H828.9Z"/><path class="b" d="M923.4,0h48.2V242.9H923.4Z"/><path class="b" d="M1009.2,154.9c0-50.5,43.1-91.9,95.7-91.9s96.4,41.4,96.4,91.9-43.7,92.2-96.4,92.2S1009.2,206,1009.2,154.9Zm47.2,0c0,29.2,20.9,50.4,48.5,50.4s48.6-21.8,48.6-50.4-21.2-49.8-48.6-49.8S1056.4,126.9,1056.4,154.9Z"/><path class="b" d="M1287.8,164.8v78.1h-47.9V66.2h47.9V89.6c18-23.7,47.8-26.9,60.4-26.6v46.9C1336.6,108.9,1287.8,111.2,1287.8,164.8Z"/></svg>