<svg xmlns="http://www.w3.org/2000/svg" xmlns:xlink="http://www.w3.org/1999/xlink" viewBox="0 0 708.5 501.1"><defs><style>.a{fill:url(#a);}.b{fill:#262626;}</style><linearGradient id="a" x1="-351.52" y1="-2038.8" x2="-351.35" y2="-2038.8" gradientTransform="matrix(212.46, 822.5, 822.5, -212.46, 1751907.6, -144043.7)" gradientUnits="userSpaceOnUse"><stop offset="0" stop-color="#00ff8f"/><stop offset="0.43" stop-color="#53fdb2"/><stop offset="1" stop-color="#68fcbb"/></linearGradient></defs><path class="a" d="M485.4,23.4c9.9,38.2-183,132.7-270.4,155.3S383.9,90.4,374,52.2,159.7,45.4,247.1,22.8,475.6-14.8,485.4,23.4Z"/><path class="b" d="M55.6,446.8c0,7.7.3,21.2,17.6,21.2,4.4,0,7.5-.3,9.9-.5v32.6c-4.7.5-11.9,1-17.4,1-30,0-48.4-5.4-48.4-35.4v-79H0V352.8H17.3v-38H55.6v38H84.1v33.9H55.6Z"/><path class="b" d="M107.1,426.8c0-58.4,50.7-74,77.4-74,36.5,0,73,24.9,74.3,70.7a171,171,0,0,1-.8,17.8H145.7c4.6,23.3,31,25.9,38.8,25.9,21.5,0,32.1-11.6,36.5-16.5L251,468c-5.7,7.8-24.9,33.1-66.5,33.1C156.8,501.1,107.1,485.3,107.1,426.8Zm39.6-12.9h71.2c-1.6-12.9-14.3-27.2-33.7-27.2C162,386.7,148.3,399.4,146.7,413.9Z"/><path class="b" d="M290.3,301.9h38.8V497.5H290.3Z"/><path class="b" d="M366.4,301.9h38.8V497.5H366.4Z"/><path class="b" d="M435.5,426.6c0-40.6,34.7-74,77.1-74s77.6,33.4,77.6,74-35.2,74.3-77.6,74.3S435.5,467.7,435.5,426.6Zm38,0c0,23.5,16.8,40.6,39.1,40.6s39.1-17.6,39.1-40.6-17.1-40.1-39.1-40.1S473.5,404.1,473.5,426.6Z"/><path class="b" d="M659.8,434.6v62.9H621.3V355.2h38.5v18.9c14.5-19.2,38.6-21.8,48.7-21.5v37.8C699.2,389.6,659.8,391.4,659.8,434.6Z"/></svg>