<svg xmlns="http://www.w3.org/2000/svg" viewBox="0 0 879.7 247.4"><defs><style>.a{fill:#262626;}</style></defs><path class="a" d="M69.1,179.9c0,9.7.3,26.4,21.8,26.4a88.6,88.6,0,0,0,12.2-.7v40.5a202,202,0,0,1-21.5,1.3c-37.3,0-60.1-6.7-60.1-44v-98H0V63.3H21.5V16.1H69.1V63.3h35.3v42.1H69.1Z"/><path class="a" d="M133,155.2c0-72.6,63-91.9,96.1-91.9,45.3,0,90.6,30.8,92.2,87.7a215,215,0,0,1-1,22.2H180.9c5.8,28.9,38.5,32.1,48.2,32.1,26.7,0,39.8-14.4,45.3-20.6l37.3,21.6c-7.1,9.6-30.9,41.1-82.6,41.1C194.7,247.4,133,227.8,133,155.2Zm49.2-16.1h88.3c-1.9-16-17.6-33.7-41.7-33.7C201.1,105.4,184.1,121.1,182.2,139.1Z"/><path class="a" d="M360.5,0h48.2V242.9H360.5Z"/><path class="a" d="M455,0h48.2V242.9H455Z"/><path class="a" d="M540.8,154.9c0-50.5,43-91.9,95.7-91.9s96.4,41.4,96.4,91.9-43.7,92.2-96.4,92.2S540.8,206,540.8,154.9Zm47.2,0c0,29.2,20.9,50.4,48.5,50.4S685,183.5,685,154.9s-21.2-49.8-48.5-49.8S588,126.9,588,154.9Z"/><path class="a" d="M819.3,164.8v78.1H771.5V66.2h47.8V89.6c18-23.7,47.9-26.9,60.4-26.6v46.9C868.2,108.9,819.3,111.2,819.3,164.8Z"/></svg>