<svg xmlns="http://www.w3.org/2000/svg" xmlns:xlink="http://www.w3.org/1999/xlink" viewBox="0 0 1208.56 899.11"><defs><style>.cls-1{fill:url(#linear-gradient);}</style><linearGradient id="linear-gradient" x1="361.31" y1="-4627.92" x2="461.97" y2="-5017.6" gradientTransform="matrix(1, 0, 0, -1, 0, -4226.43)" gradientUnits="userSpaceOnUse"><stop offset="0" stop-color="#00ff8f"/><stop offset="1" stop-color="#baffe1"/></linearGradient></defs><title>LlightBkrnd_RGB</title><g id="Layer_2" data-name="Layer 2"><g id="Layer_1-2" data-name="Layer 1"><path class="cls-1" d="M838.33,453.47C866.12,561.08,323,827.07,76.86,890.65S552.34,642.13,524.54,534.52-78.93,515.21,167.2,451.63,810.53,345.86,838.33,453.47Z"/><path d="M94.9,247.18c0,13.24.44,36.2,30,36.2a147,147,0,0,0,16.77-.88v55.61c-7.94.89-20.3,1.77-29.57,1.77-51.21,0-82.55-9.27-82.55-60.47V144.78H0V87H29.57V22.07H94.9V87h48.56v57.83H94.9Z"/><path d="M182.74,213.19c0-99.75,86.51-126.24,132-126.24C377,87,439.2,129.33,441.4,207.46c0,18.54-1.32,30.45-1.32,30.45H248.51c7.94,39.73,53,44.14,66.21,44.14,36.64,0,54.73-19.86,62.24-28.25l51.2,29.58c-9.71,13.24-42.37,56.5-113.44,56.5C267.49,339.88,182.74,313,182.74,213.19Zm67.53-22.07H371.66c-2.65-22.07-24.28-46.34-57.38-46.34C276.32,144.78,252.92,166.41,250.27,191.12Z"/><path d="M495.26,0V330.85c20-2.7,42.35-4.57,66.21-5.41V0Z"/><path d="M625,0V325.68a654.42,654.42,0,0,1,66.21,6V0Z"/><path d="M742.88,212.75c0-69.3,59.15-126.24,131.54-126.24s132.42,56.94,132.42,126.24c0,70.19-60,126.69-132.42,126.69S742.88,282.94,742.88,212.75Zm64.89,0c0,40.17,28.69,69.3,66.65,69.3,37.52,0,66.65-30,66.65-69.3,0-38.84-29.13-68.41-66.65-68.41C837.34,144.34,807.77,174.35,807.77,212.75Z"/><path d="M1125.58,226.44V333.7h-65.77V90.93h65.77v32.22c24.71-32.67,65.77-37.08,83-36.64V151C1192.67,149.63,1125.58,152.72,1125.58,226.44Z"/></g></g></svg>