<svg width="204" height="219" viewBox="0 0 204 219" fill="none" xmlns="http://www.w3.org/2000/svg">
<path d="M115.917 218.157C110.724 218.157 105.538 217.169 100.7 215.193C65.2261 200.705 48.3146 182.612 41.3834 173.123C38.1967 168.749 39.1382 162.616 43.4983 159.412C47.8583 156.207 53.9711 157.159 57.1651 161.533C70.4552 179.749 94.7686 191.586 108.073 197.021C113.056 199.055 118.778 199.055 123.761 197.021C141.802 189.653 183.758 168.901 183.758 135.492V40.0866C183.758 30.8152 175.335 19.6183 164.877 19.6183H66.9643C58.4108 19.6183 48.0828 28.7516 48.0828 40.0866V118.78C48.0828 124.201 43.7083 128.589 38.3053 128.589C32.9024 128.589 28.5278 124.201 28.5278 118.78V40.0866C28.5278 30.4446 32.5113 20.512 39.4569 12.8318C46.953 4.55579 56.716 0 66.9643 0H164.884C175.125 0 184.896 4.5558 192.384 12.8391C199.33 20.5192 203.313 30.4519 203.313 40.0939V135.499C203.313 155.437 193.753 173.631 174.901 189.573C160.271 201.947 143.026 210.339 131.134 215.193C126.296 217.169 121.103 218.157 115.91 218.157H115.917Z" fill="#191B24"/>
<path d="M93.1601 67.8717C66.1168 47.0914 74.1051 35.9682 115.34 48.9311C162.505 63.7566 184.177 85.5315 173.111 105.66C160.204 129.133 117.816 142.403 71.6293 150.18C21.7822 158.574 7.17542 148.66 52.796 128.149C95.0703 109.144 132.16 97.8434 93.1601 67.8717Z" fill="#191B24"/>
</svg>
