<svg width="3610" height="997" viewBox="0 0 3610 997" fill="none" xmlns="http://www.w3.org/2000/svg">
<path d="M3609.97 442.823C3563.36 438.938 3366.55 448.002 3366.55 664.232V978.867H3173.62V266.731H3366.55V361.251C3439.05 265.436 3559.47 252.488 3609.97 253.783V442.823Z" fill="#068987"/>
<path d="M2616.38 995.684C2404.03 995.684 2230.53 829.95 2230.53 624.078C2230.53 420.795 2404.03 253.767 2616.38 253.767C2828.73 253.767 3004.82 420.795 3004.82 624.078C3004.82 829.95 2828.73 995.684 2616.38 995.684ZM2616.38 423.385C2507.62 423.385 2420.87 511.431 2420.87 624.078C2420.87 741.904 2505.03 827.36 2616.38 827.36C2726.44 827.36 2811.9 739.314 2811.9 624.078C2811.9 510.136 2726.44 423.385 2616.38 423.385Z" fill="#068987"/>
<path d="M1872.03 978.864V0L2066.25 0V978.864H1872.03Z" fill="#068987"/>
<path d="M1478.42 978.864V0L1672.64 0V978.864H1478.42Z" fill="#068987"/>
<path d="M936.336 997C797.793 997 549.191 918.018 549.191 625.394C549.191 332.771 802.972 255.083 936.336 255.083C1118.9 255.083 1301.47 379.383 1307.94 608.562C1307.94 662.943 1304.06 697.903 1304.06 697.903H742.116C765.423 814.434 897.492 827.382 936.336 827.382C1043.8 827.382 1096.89 769.116 1118.9 744.515L1269.1 831.266C1240.61 870.11 1144.8 997 936.336 997ZM935.041 424.701C823.689 424.701 755.064 488.146 747.296 560.654H1103.37C1095.6 495.915 1032.15 424.701 935.041 424.701Z" fill="#068987"/>
<path d="M278.382 424.698V725.09C278.382 763.934 279.676 831.263 366.428 831.263C388.439 831.263 403.977 829.969 415.63 828.674V991.818C392.324 994.407 356.069 996.997 328.879 996.997C178.682 996.997 86.7515 969.806 86.7515 819.61V424.698H0L0 255.08H86.7515V64.7451H278.382V255.08H420.809V424.698H278.382Z" fill="#068987"/>
</svg>
